<mxfile host="app.diagrams.net" modified="2023-05-10T07:27:34.286Z" agent="Mozilla/5.0 (Windows NT 10.0; Win64; x64) AppleWebKit/537.36 (KHTML, like Gecko) Chrome/112.0.0.0 Safari/537.36" etag="xHj1maKQ6xTLvpAPdMT-" version="21.2.9" type="github">
  <diagram name="第 1 页" id="dzQLSI4KHHar9t0BoVfK">
    <mxGraphModel dx="1434" dy="788" grid="1" gridSize="10" guides="1" tooltips="1" connect="1" arrows="1" fold="1" page="1" pageScale="1" pageWidth="827" pageHeight="1169" math="0" shadow="0">
      <root>
        <mxCell id="0" />
        <mxCell id="1" parent="0" />
        <mxCell id="pyv9uiODl41yjENFkIJ4-1" value="&lt;font style=&quot;font-size: 14px;&quot;&gt;用户&lt;/font&gt;" style="ellipse;whiteSpace=wrap;html=1;" vertex="1" parent="1">
          <mxGeometry x="160" y="200" width="120" height="80" as="geometry" />
        </mxCell>
        <mxCell id="pyv9uiODl41yjENFkIJ4-11" style="edgeStyle=orthogonalEdgeStyle;rounded=0;orthogonalLoop=1;jettySize=auto;html=1;exitX=1;exitY=0.5;exitDx=0;exitDy=0;entryX=0;entryY=0.5;entryDx=0;entryDy=0;startArrow=classicThin;startFill=1;endArrow=classicThin;endFill=1;" edge="1" parent="1" source="pyv9uiODl41yjENFkIJ4-2" target="pyv9uiODl41yjENFkIJ4-3">
          <mxGeometry relative="1" as="geometry" />
        </mxCell>
        <mxCell id="pyv9uiODl41yjENFkIJ4-12" style="edgeStyle=orthogonalEdgeStyle;rounded=0;orthogonalLoop=1;jettySize=auto;html=1;exitX=0;exitY=0.5;exitDx=0;exitDy=0;entryX=1;entryY=0.5;entryDx=0;entryDy=0;startArrow=classicThin;startFill=1;endArrow=classicThin;endFill=1;" edge="1" parent="1" source="pyv9uiODl41yjENFkIJ4-2" target="pyv9uiODl41yjENFkIJ4-1">
          <mxGeometry relative="1" as="geometry" />
        </mxCell>
        <mxCell id="pyv9uiODl41yjENFkIJ4-2" value="&lt;font style=&quot;font-size: 14px;&quot;&gt;角色&lt;/font&gt;" style="ellipse;whiteSpace=wrap;html=1;" vertex="1" parent="1">
          <mxGeometry x="340" y="200" width="120" height="80" as="geometry" />
        </mxCell>
        <mxCell id="pyv9uiODl41yjENFkIJ4-3" value="" style="ellipse;whiteSpace=wrap;html=1;" vertex="1" parent="1">
          <mxGeometry x="530" y="175" width="240" height="130" as="geometry" />
        </mxCell>
        <mxCell id="pyv9uiODl41yjENFkIJ4-10" style="edgeStyle=orthogonalEdgeStyle;rounded=0;orthogonalLoop=1;jettySize=auto;html=1;exitX=1;exitY=0.5;exitDx=0;exitDy=0;entryX=0;entryY=0.5;entryDx=0;entryDy=0;startArrow=classicThin;startFill=1;endArrow=classicThin;endFill=1;" edge="1" parent="1" source="pyv9uiODl41yjENFkIJ4-4" target="pyv9uiODl41yjENFkIJ4-6">
          <mxGeometry relative="1" as="geometry" />
        </mxCell>
        <mxCell id="pyv9uiODl41yjENFkIJ4-4" value="" style="ellipse;whiteSpace=wrap;html=1;" vertex="1" parent="1">
          <mxGeometry x="575" y="200" width="45" height="80" as="geometry" />
        </mxCell>
        <mxCell id="pyv9uiODl41yjENFkIJ4-6" value="" style="ellipse;whiteSpace=wrap;html=1;" vertex="1" parent="1">
          <mxGeometry x="680" y="200" width="45" height="80" as="geometry" />
        </mxCell>
        <mxCell id="pyv9uiODl41yjENFkIJ4-7" value="&lt;font style=&quot;font-size: 14px;&quot;&gt;操作&lt;/font&gt;" style="text;html=1;strokeColor=none;fillColor=none;align=center;verticalAlign=middle;whiteSpace=wrap;rounded=0;" vertex="1" parent="1">
          <mxGeometry x="587.5" y="200" width="20" height="80" as="geometry" />
        </mxCell>
        <mxCell id="pyv9uiODl41yjENFkIJ4-8" value="&lt;font style=&quot;font-size: 14px;&quot;&gt;客体&lt;/font&gt;" style="text;html=1;strokeColor=none;fillColor=none;align=center;verticalAlign=middle;whiteSpace=wrap;rounded=0;" vertex="1" parent="1">
          <mxGeometry x="692.5" y="200" width="20" height="80" as="geometry" />
        </mxCell>
        <mxCell id="pyv9uiODl41yjENFkIJ4-9" value="&lt;font style=&quot;font-size: 14px;&quot;&gt;许可&lt;/font&gt;" style="text;html=1;strokeColor=none;fillColor=none;align=center;verticalAlign=middle;whiteSpace=wrap;rounded=0;" vertex="1" parent="1">
          <mxGeometry x="620" y="190" width="60" height="30" as="geometry" />
        </mxCell>
        <mxCell id="pyv9uiODl41yjENFkIJ4-13" value="&lt;font style=&quot;font-size: 14px;&quot;&gt;角色分配&lt;/font&gt;" style="text;html=1;strokeColor=none;fillColor=none;align=center;verticalAlign=middle;whiteSpace=wrap;rounded=0;" vertex="1" parent="1">
          <mxGeometry x="280" y="190" width="60" height="30" as="geometry" />
        </mxCell>
        <mxCell id="pyv9uiODl41yjENFkIJ4-14" value="&lt;font style=&quot;font-size: 14px;&quot;&gt;权限分配&lt;/font&gt;" style="text;html=1;strokeColor=none;fillColor=none;align=center;verticalAlign=middle;whiteSpace=wrap;rounded=0;" vertex="1" parent="1">
          <mxGeometry x="470" y="190" width="60" height="30" as="geometry" />
        </mxCell>
      </root>
    </mxGraphModel>
  </diagram>
</mxfile>
